<?xml version="1.0" encoding="utf-8"?>
<!-- Generator: Adobe Illustrator 24.1.0, SVG Export Plug-In . SVG Version: 6.00 Build 0)  -->
<svg version="1.1" id="Layer_1" xmlns="http://www.w3.org/2000/svg" xmlns:xlink="http://www.w3.org/1999/xlink" x="0px" y="0px"
	 viewBox="0 0 314.94 287.69" style="enable-background:new 0 0 314.94 287.69;" xml:space="preserve">
<style type="text/css">
	.st0{fill:#393939;}
	.st1{fill:#8377EC;}
</style>
<g>
	<g>
		<path class="st0" d="M73.93,97.47V45.08L50.66,85.61h-3.68L23.7,45.08v52.39h-6.3v-63.8h6.47l24.89,43.67l25.07-43.67h6.38v63.8
			H73.93z"/>
		<path class="st0" d="M96.58,33.67L117.43,68l21.03-34.33h6.83l-24.71,40.08v23.72h-6.29v-23.9l-24.62-39.9H96.58z"/>
	</g>
	<g>
		<path class="st0" d="M17.4,181.55v-63.8h6.29v58.23h36.84v5.57H17.4z"/>
		<path class="st0" d="M91.45,182c-4.43,0-8.49-0.91-12.18-2.74c-3.68-1.83-6.84-4.25-9.48-7.28c-2.64-3.02-4.67-6.48-6.11-10.38
			c-1.44-3.89-2.16-7.88-2.16-11.95c0-4.25,0.76-8.33,2.29-12.22s3.64-7.34,6.34-10.33c2.7-3,5.87-5.38,9.53-7.14
			c3.65-1.77,7.61-2.65,11.86-2.65c4.43,0,8.49,0.94,12.18,2.83s6.83,4.36,9.44,7.41c2.61,3.06,4.63,6.52,6.07,10.38
			s2.16,7.8,2.16,11.82c0,4.25-0.76,8.33-2.29,12.22c-1.53,3.9-3.62,7.32-6.29,10.29c-2.67,2.97-5.83,5.33-9.48,7.1
			C99.66,181.12,95.71,182,91.45,182z M67.82,149.65c0,3.48,0.57,6.82,1.71,10.02c1.14,3.21,2.75,6.05,4.85,8.54
			c2.1,2.49,4.58,4.46,7.46,5.93c2.88,1.47,6.08,2.2,9.62,2.2c3.59,0,6.86-0.78,9.8-2.34c2.93-1.56,5.42-3.59,7.46-6.11
			s3.61-5.36,4.72-8.54c1.11-3.17,1.66-6.41,1.66-9.71c0-3.47-0.58-6.81-1.75-10.02c-1.17-3.2-2.8-6.04-4.9-8.49
			c-2.1-2.46-4.58-4.42-7.46-5.89s-6.05-2.2-9.53-2.2c-3.59,0-6.86,0.76-9.79,2.29c-2.94,1.53-5.42,3.55-7.46,6.07
			s-3.61,5.36-4.72,8.54C68.37,143.12,67.82,146.36,67.82,149.65z"/>
		<path class="st0" d="M129.02,149.2c0-3.83,0.67-7.65,2.02-11.46c1.35-3.8,3.31-7.2,5.89-10.2s5.75-5.44,9.53-7.32
			s8.06-2.83,12.85-2.83c5.69,0,10.56,1.29,14.6,3.86c4.04,2.58,7.02,5.93,8.94,10.06l-4.94,3.06c-1.02-2.1-2.26-3.86-3.73-5.3
			s-3.04-2.61-4.72-3.5c-1.68-0.9-3.41-1.54-5.21-1.93s-3.57-0.58-5.3-0.58c-3.83,0-7.22,0.78-10.16,2.34s-5.41,3.59-7.41,6.11
			c-2.01,2.52-3.52,5.35-4.54,8.49c-1.02,3.15-1.53,6.34-1.53,9.57c0,3.54,0.61,6.92,1.84,10.15c1.23,3.24,2.91,6.1,5.03,8.58
			c2.12,2.49,4.64,4.46,7.55,5.93c2.91,1.47,6.07,2.2,9.48,2.2c1.8,0,3.64-0.22,5.53-0.67s3.71-1.17,5.48-2.16
			c1.77-0.99,3.4-2.22,4.9-3.68c1.5-1.47,2.75-3.25,3.77-5.35l5.21,2.7c-1.02,2.4-2.46,4.51-4.31,6.34
			c-1.86,1.83-3.92,3.37-6.2,4.63c-2.28,1.26-4.69,2.22-7.23,2.88c-2.55,0.66-5.05,0.99-7.5,0.99c-4.37,0-8.39-0.96-12.04-2.88
			c-3.66-1.92-6.8-4.42-9.44-7.5s-4.69-6.59-6.16-10.51C129.75,157.27,129.02,153.28,129.02,149.2z"/>
		<path class="st0" d="M213.76,117.75h5.3l26.51,63.8h-6.65l-8.27-19.95h-28.67l-8.18,19.95h-6.74L213.76,117.75z M229.22,156.66
			l-12.85-31.54l-13.03,31.54H229.22z"/>
		<path class="st0" d="M254.74,181.55v-63.8h6.29v58.23h36.84v5.57H254.74z"/>
	</g>
	<g>
		<path class="st1" d="M80.78,201.71v74.64H63.54v-30.59H33.79v30.59H16.56v-74.64H33.8v28.91h29.75v-28.91H80.78z"/>
		<path class="st1" d="M147.53,261.21v15.14H95.08v-74.64h51.51v15.14h-34.27v14.51h29.43v13.98h-29.43v15.87H147.53z"/>
		<path class="st1" d="M158.05,276.35v-74.64h33.64c3.5,0,6.74,0.74,9.72,2.21s5.55,3.4,7.73,5.78c2.17,2.38,3.87,5.08,5.1,8.09
			c1.22,3.01,1.84,6.06,1.84,9.15c0,2.31-0.28,4.54-0.84,6.68s-1.37,4.15-2.42,6.04s-2.33,3.59-3.84,5.1
			c-1.51,1.51-3.21,2.79-5.1,3.84l16.4,27.75h-19.45l-14.3-24.07h-11.25v24.07L158.05,276.35L158.05,276.35z M175.29,237.24h15.77
			c2.03,0,3.78-0.96,5.26-2.89c1.47-1.93,2.21-4.4,2.21-7.41c0-3.08-0.84-5.54-2.52-7.36c-1.68-1.82-3.5-2.73-5.47-2.73H175.3
			L175.29,237.24L175.29,237.24z"/>
		<path class="st1" d="M261.17,276.98c-5.54,0-10.58-1.09-15.14-3.26s-8.45-5.03-11.67-8.57s-5.73-7.58-7.52-12.14
			c-1.79-4.55-2.68-9.25-2.68-14.09c0-4.91,0.93-9.64,2.79-14.19s4.45-8.57,7.78-12.04s7.27-6.24,11.83-8.3
			c4.55-2.07,9.53-3.1,14.93-3.1c5.54,0,10.58,1.09,15.14,3.26c4.55,2.17,8.44,5.05,11.67,8.62c3.22,3.57,5.71,7.64,7.46,12.19
			c1.75,4.56,2.63,9.18,2.63,13.88c0,4.91-0.93,9.64-2.79,14.19c-1.86,4.56-4.43,8.57-7.73,12.04c-3.29,3.47-7.22,6.25-11.77,8.36
			C271.54,275.92,266.57,276.98,261.17,276.98z M241.72,239.13c0,2.87,0.42,5.66,1.26,8.36s2.08,5.1,3.73,7.2
			c1.65,2.1,3.7,3.79,6.15,5.05c2.45,1.26,5.26,1.89,8.41,1.89c3.29,0,6.17-0.67,8.62-2c2.45-1.33,4.48-3.07,6.1-5.2
			c1.61-2.14,2.82-4.55,3.63-7.25c0.8-2.7,1.21-5.45,1.21-8.25c0-2.87-0.42-5.66-1.26-8.36s-2.1-5.08-3.78-7.15
			c-1.68-2.07-3.73-3.71-6.15-4.94c-2.42-1.23-5.2-1.84-8.36-1.84c-3.29,0-6.15,0.65-8.57,1.95c-2.42,1.3-4.45,3-6.1,5.1
			c-1.65,2.1-2.87,4.5-3.68,7.2C242.13,233.58,241.72,236.33,241.72,239.13z"/>
	</g>
	<path class="st1" d="M263.96,38.62l-8.72-23.65c-0.94-2.55-3.38-4.25-6.1-4.25H186.4c-2.63,0-5,1.58-6,4.01l-9.82,23.65
		c-0.92,2.21-0.55,4.74,0.96,6.6l40.59,49.81h-11.87c-3.59,0-6.5,2.91-6.5,6.5s2.91,6.5,6.5,6.5h33.93c3.59,0,6.5-2.91,6.5-6.5
		s-2.91-6.5-6.5-6.5h-11.87l40.59-49.81C264.35,43.19,264.75,40.78,263.96,38.62z M190.74,23.72h14.83l-12.54,27.05l-8.96-11
		L190.74,23.72z M217.22,80.46l-15.06-18.48l17.73-38.26h24.72l5.87,15.92L217.22,80.46z"/>
</g>
</svg>
